<svg xmlns="http://www.w3.org/2000/svg" width="900" height="1200" viewBox="0 0 900 1200"><rect width="900" height="1200" fill="#cbd4c0"/><g fill="#24392e" font-family="Arial,Helvetica,sans-serif"><text x="60" y="100" font-size="20" letter-spacing="4">SeMA / WAYFINDING</text><text x="60" y="210" font-size="66" letter-spacing="-3">A little direction.</text><g stroke="#8c9e89" stroke-width="1" opacity=".4"><path d="M0 290V1150M0 300H900"/><path d="M100 290V1150M0 400H900"/><path d="M200 290V1150M0 500H900"/><path d="M300 290V1150M0 600H900"/><path d="M400 290V1150M0 700H900"/><path d="M500 290V1150M0 800H900"/><path d="M600 290V1150M0 900H900"/><path d="M700 290V1150M0 1000H900"/><path d="M800 290V1150M0 1100H900"/></g><path d="M180 930V570Q180 480 270 480H580Q690 480 690 610V810Q690 900 590 900H450" stroke="#274838" stroke-width="18" fill="none"/><circle cx="180" cy="930" r="32" fill="#274838"/><circle cx="450" cy="900" r="55" fill="#eeeade"/><circle cx="450" cy="900" r="13" fill="#c36b3e"/><text x="215" y="418" font-size="22">01 / Start here</text><text x="515" y="970" font-size="22">02 / Next artwork</text><text x="60" y="1140" font-size="20" letter-spacing="3">LESS SEARCHING. MORE SEEING.</text></g></svg>
